<svg id="Layer_1" data-name="Layer 1" xmlns="http://www.w3.org/2000/svg" viewBox="0 0 399.44 91.93"><defs><style>.cls-1{fill:#0089bb;}.cls-2{fill:#1c1c1c;}</style></defs><title>Artboard 21inn_dark</title><path class="cls-1" d="M40.17.19v40H.17v44h84V.19Zm0,80h-36v-36h36Zm40,0h-36v-36h36Zm-36-40v-36h36v36Z"/><path class="cls-2" d="M129.05,44.19h-5V19h5Z"/><path class="cls-2" d="M151,33.08V44.19h-4.7v-9.6c0-2.52-1.26-3.9-3.4-3.9a3.58,3.58,0,0,0-3.69,3.94v9.56h-4.7V26.74h4.57V28.8a5.86,5.86,0,0,1,5.14-2.52A6.49,6.49,0,0,1,151,33.08Z"/><path class="cls-2" d="M168.34,31.6a14.17,14.17,0,0,0-5.56-1.42c-1.79,0-2.68.63-2.68,1.59s1.26,1.26,2.84,1.49l1.55.24c3.78.57,5.89,2.26,5.89,5.22,0,3.6-3,5.92-8,5.92a13.94,13.94,0,0,1-7.76-2L156.46,39a10.2,10.2,0,0,0,5.94,1.71c2.18,0,3.22-.61,3.22-1.64,0-.84-.88-1.31-2.9-1.6l-1.42-.2c-4-.55-6-2.32-6-5.29,0-3.58,2.77-5.71,7.36-5.71a15.74,15.74,0,0,1,7.3,1.66Z"/><path class="cls-2" d="M187,30.92h-6.32v6.37c0,2.18,1.15,3,2.61,3a6.81,6.81,0,0,0,3.28-1.14l1.73,3.67a9.71,9.71,0,0,1-5.78,1.84c-4.32,0-6.54-2.45-6.54-7V30.92h-3.37V26.74H176V21.56h4.7v5.18H187Z"/><path class="cls-2" d="M196.56,21a3,3,0,1,1-3-3A3,3,0,0,1,196.56,21Zm-.63,23.15h-4.7V26.74h4.7Z"/><path class="cls-2" d="M213.34,30.92H207v6.37c0,2.18,1.15,3,2.61,3a6.84,6.84,0,0,0,3.28-1.14l1.72,3.67a9.68,9.68,0,0,1-5.77,1.84c-4.33,0-6.54-2.45-6.54-7V30.92H199V26.74h3.37V21.56H207v5.18h6.32Z"/><path class="cls-2" d="M233.67,36.75c0,5.51-3.89,7.89-8.25,7.89s-8.26-2.38-8.26-7.89v-10h4.7v9.6c0,2.79,1.53,3.93,3.56,3.93S229,39.13,229,36.34v-9.6h4.68Z"/><path class="cls-2" d="M251,30.92h-6.32v6.37c0,2.18,1.16,3,2.61,3a6.77,6.77,0,0,0,3.28-1.14l1.73,3.67a9.71,9.71,0,0,1-5.78,1.84c-4.32,0-6.54-2.45-6.54-7V30.92h-3.36V26.74H240V21.56h4.7v5.18H251Z"/><path class="cls-2" d="M271.17,35.44a14.22,14.22,0,0,1-.09,1.58H258.71a4.2,4.2,0,0,0,4.48,3.62A7.06,7.06,0,0,0,267.6,39l2.76,3a10.58,10.58,0,0,1-7.44,2.65c-5.35,0-9.05-3.64-9.05-9.13s3.6-9.23,8.82-9.23C267.71,26.28,271.15,30,271.17,35.44Zm-12.44-1.62h7.72c-.43-2.23-1.78-3.49-3.8-3.49C260.44,30.33,259.14,31.66,258.73,33.82Z"/><path class="cls-2" d="M299.34,30.92h-5.42V44.19h-4.7V30.92H286V26.74h3.26V24.58c0-4.08,2.18-6.77,6.25-6.77a9.27,9.27,0,0,1,5.36,1.57L299,23a6.46,6.46,0,0,0-3-.84c-1.35,0-2.05.83-2.05,2.45v2.1h5.42Z"/><path class="cls-2" d="M320.45,35.46A9.44,9.44,0,1,1,311,26.28,9.08,9.08,0,0,1,320.45,35.46Zm-14.08,0a4.64,4.64,0,1,0,9.27,0,4.64,4.64,0,1,0-9.27,0Z"/><path class="cls-2" d="M336.27,26.65l-.7,4.67a7.5,7.5,0,0,0-2.85-.56c-2.18,0-3.67,1.33-3.67,3.92v9.51h-4.7V26.74h4.56v1.91a5.48,5.48,0,0,1,4.91-2.37A7.26,7.26,0,0,1,336.27,26.65Z"/><path class="cls-2" d="M146.57,84.19h-4.71L129.07,67.36l0,16.83h-5V59h4.7l12.8,16.84V59h5Z"/><path class="cls-2" d="M169.93,75.46a9.44,9.44,0,1,1-9.45-9.18A9.07,9.07,0,0,1,169.93,75.46Zm-14.08,0a4.64,4.64,0,1,0,4.63-4.81A4.57,4.57,0,0,0,155.85,75.46Z"/><path class="cls-2" d="M190.33,73.08V84.19h-4.7v-9.6c0-2.52-1.26-3.9-3.4-3.9a3.58,3.58,0,0,0-3.7,3.94v9.56h-4.69V66.74h4.57V68.8a5.83,5.83,0,0,1,5.13-2.52A6.5,6.5,0,0,1,190.33,73.08Z"/><path class="cls-2" d="M213.46,75.46c0,5.24-3.64,9.18-8.45,9.18a6.39,6.39,0,0,1-5.13-2.27v9H195.2V66.74h4.59v1.93A6.34,6.34,0,0,1,205,66.28C209.82,66.28,213.46,70.22,213.46,75.46Zm-13.81,0a4.5,4.5,0,1,0,4.48-4.81A4.48,4.48,0,0,0,199.65,75.46Z"/><path class="cls-2" d="M229.34,66.65l-.7,4.67a7.45,7.45,0,0,0-2.84-.56c-2.18,0-3.68,1.33-3.68,3.92v9.51h-4.7V66.74H222v1.91a5.49,5.49,0,0,1,4.91-2.37A7.26,7.26,0,0,1,229.34,66.65Z"/><path class="cls-2" d="M250,75.46a9.44,9.44,0,1,1-9.45-9.18A9.07,9.07,0,0,1,250,75.46Zm-14.08,0a4.64,4.64,0,1,0,4.63-4.81A4.57,4.57,0,0,0,235.91,75.46Z"/><path class="cls-2" d="M265.43,70.92H260V84.19h-4.7V70.92h-3.26V66.74h3.26V64.58c0-4.08,2.18-6.77,6.25-6.77a9.27,9.27,0,0,1,5.36,1.57L265.05,63a6.46,6.46,0,0,0-3-.84c-1.35,0-2.05.83-2.05,2.45v2.1h5.42Z"/><path class="cls-2" d="M275,61a3,3,0,1,1-3-3A3,3,0,0,1,275,61Zm-.63,23.15h-4.7V66.74h4.7Z"/><path class="cls-2" d="M291.81,70.92h-6.32v6.37c0,2.18,1.15,3,2.61,3a6.81,6.81,0,0,0,3.28-1.14l1.73,3.67a9.71,9.71,0,0,1-5.78,1.84c-4.32,0-6.54-2.45-6.54-7V70.92h-3.37V66.74h3.37V61.56h4.7v5.18h6.32Z"/><path class="cls-2" d="M328.52,84.19H323.8L311,67.36V84.19h-5V59h4.7l12.8,16.84V59h5Z"/><path class="cls-2" d="M350.37,75.44a14.22,14.22,0,0,1-.09,1.58H337.91a4.2,4.2,0,0,0,4.48,3.62A7.06,7.06,0,0,0,346.8,79l2.76,3a10.58,10.58,0,0,1-7.44,2.65c-5.34,0-9.05-3.64-9.05-9.13s3.6-9.23,8.82-9.23C346.91,66.28,350.35,70,350.37,75.44Zm-12.44-1.62h7.72c-.43-2.23-1.78-3.49-3.8-3.49C339.64,70.33,338.34,71.66,337.93,73.82Z"/><path class="cls-2" d="M373.37,79l3.74-12.25H382l-5.91,17.45h-5.36L366.89,72.4l-3.84,11.79h-5.33l-5.9-17.45h5l3.73,12.19,3.9-12.19h5Z"/><path class="cls-2" d="M397.19,71.6a14.22,14.22,0,0,0-5.57-1.42c-1.78,0-2.68.63-2.68,1.59s1.26,1.26,2.84,1.49l1.55.24c3.78.57,5.89,2.26,5.89,5.22,0,3.6-3,5.92-8,5.92a13.92,13.92,0,0,1-7.76-2L385.3,79a10.24,10.24,0,0,0,5.94,1.71c2.18,0,3.23-.61,3.23-1.64,0-.84-.89-1.31-2.9-1.6l-1.42-.2c-4-.55-6-2.32-6-5.29,0-3.58,2.78-5.71,7.37-5.71A15.67,15.67,0,0,1,398.77,68Z"/></svg>